<?xml version="1.0"?>
<svg version="1.1" xmlns="http://www.w3.org/2000/svg" width="235" height="70" style=""><path fill="#f04400" d="M37.456,49.364c0.028,0.476-0.112,0.756-0.644,0.756l-2.268,0c-0.588,0-0.7-0.28-0.728-0.924l-0.392-11.368l-0.056,0l-4.76,11.788c-0.168,0.448-0.448,0.504-0.756,0.504l-0.98,0c-0.42,0-0.672-0.084-0.868-0.532l-5.292-11.76l-0.056,0l-0.252,11.592c0,0.616-0.252,0.7-0.756,0.7l-1.904,0c-0.532,0-0.756-0.196-0.728-0.728l0.7-17.892c0.028-0.588,0.224-0.756,0.672-0.756l1.652,0c0.56,0,0.756,0.196,0.952,0.616l6.468,13.832l0.056,0l5.908-13.832c0.168-0.42,0.392-0.616,0.896-0.616l1.652,0c0.448,0,0.616,0.168,0.644,0.616z M50.686,32.508c0,0.448-0.196,0.588-0.588,0.588l-1.596,0l0,14.672l1.512,0c0.392,0,0.588,0.252,0.588,0.588l0,1.204c0,0.336-0.14,0.56-0.504,0.56l-6.664,0c-0.364,0-0.56-0.224-0.56-0.532l0-1.26c0-0.392,0.168-0.56,0.56-0.56l1.484,0l0-14.672l-1.624,0c-0.392,0-0.56-0.196-0.56-0.56l0-1.232c0-0.308,0.168-0.56,0.504-0.56l6.86,0c0.392,0,0.588,0.252,0.588,0.532l0,1.232z M72.372,49.364c0,0.616-0.252,0.756-0.672,0.756l-1.876,0c-0.42,0-0.784-0.196-1.064-0.588l-9.128-12.488l-0.056,0l0,12.348c0,0.532-0.252,0.728-0.728,0.728l-2.016,0c-0.532,0-0.756-0.14-0.756-0.7l0-17.92c0-0.588,0.252-0.756,0.756-0.756l1.82,0c0.448,0,0.672,0.14,0.952,0.532l9.212,12.656l0.056,0l0-12.46c0-0.532,0.252-0.728,0.728-0.728l2.1,0c0.588,0,0.672,0.308,0.672,0.756l0,17.864z M85.63,32.508c0,0.448-0.196,0.588-0.588,0.588l-1.596,0l0,14.672l1.512,0c0.392,0,0.588,0.252,0.588,0.588l0,1.204c0,0.336-0.14,0.56-0.504,0.56l-6.664,0c-0.364,0-0.56-0.224-0.56-0.532l0-1.26c0-0.392,0.168-0.56,0.56-0.56l1.484,0l0-14.672l-1.624,0c-0.392,0-0.56-0.196-0.56-0.56l0-1.232c0-0.308,0.168-0.56,0.504-0.56l6.86,0c0.392,0,0.588,0.252,0.588,0.532l0,1.232z M106.252,48.104c0,0.56-0.14,0.784-0.672,1.064c-1.54,0.784-4.144,1.288-6.272,1.288c-5.824,0-9.128-4.032-9.128-9.968c0-5.852,3.78-10.108,9.492-10.108c1.792,0,3.444,0.308,5.124,1.064c0.308,0.14,0.392,0.308,0.392,0.504c0,0.112-0.056,0.224-0.084,0.336l-0.644,1.68c-0.112,0.28-0.224,0.392-0.42,0.392c-0.112,0-0.252-0.056-0.392-0.112c-0.924-0.392-2.52-0.812-3.808-0.812c-1.512,0-2.968,0.56-3.948,1.596c-1.176,1.232-1.848,3.052-1.848,5.348c0,4.34,2.044,7.056,5.404,7.056c1.148,0,2.408-0.168,3.164-0.476l0-5.348l-2.492,0c-0.392,0-0.616-0.14-0.616-0.616l0-1.708c0-0.448,0.224-0.56,0.644-0.56l5.432,0c0.476,0,0.672,0.14,0.672,0.644l0,8.736z M127.434,49.672c0,0.28-0.14,0.448-0.504,0.448l-2.492,0c-0.588,0-0.784-0.224-0.952-0.672l-1.456-4.116l-7.084,0l-1.456,4.2c-0.112,0.364-0.308,0.588-0.756,0.588l-2.492,0c-0.28,0-0.392-0.14-0.392-0.364c0-0.084,0-0.196,0.056-0.308l6.832-18.144c0.14-0.336,0.336-0.56,0.756-0.56l2.24,0c0.42,0,0.672,0.196,0.784,0.504l6.86,18.06c0.056,0.14,0.056,0.252,0.056,0.364z M121.078,42.616l-1.988-5.908c-0.252-0.784-0.42-1.372-0.56-1.82l-0.056,0c-0.14,0.476-0.308,1.064-0.588,1.848l-1.988,5.88l5.18,0z"/><path fill="#" d="M141.684,58.4q-1.16,0.68-2.86,0.68t-2.6-1.12t-1.54-3.56q-0.72,0.72-1,0.72q-0.2,0-0.2-0.28t0.2-0.48q1.32-1.64,4.48-4.72l5.04-4.72q2.16-2.04,2.56-2.04q1.28,0,1.28,0.96q0,0.48-0.38,0.94t-0.56,0.72t-0.38,0.5q-0.72,1.24-1.46,5.12t-1.14,5.4q3.32-0.04,6.84-4.32q0.4-0.4,0.6-0.4t0.2,0.26t-0.36,0.7q-2.32,2.72-4.32,3.8q-1.2,0.6-3.12,1z M136.284,53.96q0,1.36,0.9,2.22t2.02,0.86t1.72-0.44q0.8-0.44,1.58-3.68t0.94-5.72l0.16-1.36q-2.2,1.64-4.7,4.24t-2.58,3.44q-0.04,0.24-0.04,0.44z M160.8908,46.12l5.76-0.08q0.12,0.08,0.12,0.12q0,0.36-4.98,1t-5.38,0.76q-0.76,0.68-2.8,4.06t-2.04,4.94q0,1.48,2.04,1.48q0.96,0,2.52-0.6t2.4-1.12q2.24-1.4,4.8-4.12q0.56-0.56,0.76-0.56q0.12,0,0.12,0.24t-0.6,0.96q-2.08,2.56-4.68,4.12q-3.12,1.92-5.96,1.92q-1.24,0-2.02-0.54t-0.78-2.18t1.44-4.5t2.2-4.26q-0.56,0.12-0.96,0.12q-1.16,0-1.16-0.92q0-0.68,0.96-0.96q0.12,0,0.36-0.04l2.32,0q0.72-0.92,1.64-2.12q1.12-1.44,1.52-1.44t1,0.32t0.6,0.76t-1.92,2.6q1.04,0.04,2.72,0.04z M174.5376,50.52q0,1.4-2.68,4.68q-3.16,3.88-5.4,3.88l-0.64,0q-1.04,0-1.64-1.08q-0.48-0.76-0.48-1.68q0-2.4,3.5-6.74t5.66-4.34q2.04,0,2.04,2.16q0,0.56-0.2,1.44q0.04,0.12,0.76,0.12t2.2-0.76q-0.04,0.68-3.16,1.96q0.04,0.16,0.04,0.36z M171.9376,48.44q-1.36,0-3.86,3.2t-2.5,4.72t0.96,1.52q1.72,0,4.36-3.12t2.64-4.48q-0.64-0.36-1.6-1.84z M185.2644,59.2q-3,0-3-3.32q0-1.68,0.88-3.68t1.92-3.36q-0.2,0.04-0.52,0.04q-0.96,0-1.6-1.36l-2.96,3.84q-2.48,3.08-2.88,3.08q-0.2,0-0.2-0.16q0-0.4,0.68-1.16q3.48-4.04,4.92-6.84q0.92-3.48,2.32-3.48q0.92,0,0.92,0.8t-1,2.04l-0.96,1.28q0,0.84,1.24,0.84q0.72,0,1.6-0.52l1.04-0.64q0.08-0.04,0.4-0.04t0.68,0.4t0.24,0.72l-2.76,3.48q-2.56,3.28-2.56,5.18t1.76,1.9q1.84,0,4.52-1.96q1.6-1.16,2.92-2.6q1.24-1.44,1.36-1.44q0.28,0,0.28,0.3t-0.36,0.7l-1.28,1.44q-1.08,1.12-2.4,2.16q-3.16,2.36-5.2,2.36z M196.6712,59.52q-0.44,0-0.8-0.12q-2.56-0.72-2.56-2.88q0-2.8,3.52-6.48t6.32-3.68q0.92,0,1.5,0.5t0.58,1.22q0,2.24-3.38,4.28t-5.5,2.04q-0.32,0-0.56-0.08q-0.6,1.08-0.6,2.28q0,2.08,1.98,2.08t5.14-2.68q2.44-1.96,4.16-4.16q0.36-0.48,0.62-0.48t0.26,0.24t-0.32,0.68q-2.16,2.84-5.2,5.04t-5.16,2.2z M204.2312,48q0-0.48-1.02-0.48t-2.9,1.56q-2.52,2.08-3.92,4.36q0.24,0.08,0.52,0.08q1.52,0,4.06-1.62t3.18-3.54q0.08-0.2,0.08-0.36z"/></svg>
